<svg xmlns="http://www.w3.org/2000/svg" viewBox="0 0 604 344"><defs><style>.cls-1{fill:#1d1c1a;}.cls-2{fill:#00b0e0;}</style></defs><title>central_saga</title><g id="Warstwa_2" data-name="Warstwa 2"><g id="Warstwa_1-2" data-name="Warstwa 1"><path class="cls-1" d="M412.31,124h-224a10,10,0,0,1-10-10V10a10,10,0,0,1,10-10h224a10,10,0,0,1,10,10V114A10,10,0,0,1,412.31,124ZM188.31,4a6,6,0,0,0-6,6V114a6,6,0,0,0,6,6h224a6,6,0,0,0,6-6V10a6,6,0,0,0-6-6Z"/><path class="cls-1" d="M234,344H10A10,10,0,0,1,0,334V230a10,10,0,0,1,10-10H234a10,10,0,0,1,10,10V334A10,10,0,0,1,234,344ZM10,224a6,6,0,0,0-6,6V334a6,6,0,0,0,6,6H234a6,6,0,0,0,6-6V230a6,6,0,0,0-6-6Z"/><path class="cls-1" d="M594,344H370a10,10,0,0,1-10-10V230a10,10,0,0,1,10-10H594a10,10,0,0,1,10,10V334A10,10,0,0,1,594,344ZM370,224a6,6,0,0,0-6,6V334a6,6,0,0,0,6,6H594a6,6,0,0,0,6-6V230a6,6,0,0,0-6-6Z"/><path class="cls-2" d="M216,166.33l.71,23.29a1.88,1.88,0,0,0,.58,1.34,2.32,2.32,0,0,0,1.37.61l23.33.71a2.44,2.44,0,0,0,2.24-2,1.91,1.91,0,0,0-.6-1.39,2.11,2.11,0,0,0-1.48-.64l-18.77-.56L264,147.14a2,2,0,0,0,0-2.83,2,2,0,0,0-2.83,0L220.58,184.9,220,166.19a2.33,2.33,0,0,0-.74-1.55,1.89,1.89,0,0,0-1.3-.59A2.43,2.43,0,0,0,216,166.33Z"/><path class="cls-2" d="M381.93,191.56a1.87,1.87,0,0,0,1.34-.57,2.35,2.35,0,0,0,.61-1.38l.71-23.33a2.45,2.45,0,0,0-2-2.24,1.88,1.88,0,0,0-1.39.6,2.05,2.05,0,0,0-.64,1.48L380,184.9l-40.59-40.6a2,2,0,1,0-2.83,2.83l40.59,40.6-18.71.55A2.33,2.33,0,0,0,357,189a1.9,1.9,0,0,0-.59,1.31,2.42,2.42,0,0,0,2.28,1.94Z"/><path d="M283.77,55.17a1,1,0,0,1-.26.31.58.58,0,0,1-.33.09.89.89,0,0,1-.46-.15c-.16-.11-.36-.22-.58-.35a4.58,4.58,0,0,0-.8-.34,3.13,3.13,0,0,0-1.07-.16,3.17,3.17,0,0,0-1,.14,1.92,1.92,0,0,0-.71.37,1.46,1.46,0,0,0-.42.57,1.81,1.81,0,0,0-.14.74,1.28,1.28,0,0,0,.28.85,2.29,2.29,0,0,0,.76.58,7.22,7.22,0,0,0,1.07.43l1.23.4a13.19,13.19,0,0,1,1.23.5,4.4,4.4,0,0,1,1.07.73,3.28,3.28,0,0,1,.75,1.06,3.7,3.7,0,0,1,.29,1.53,5.14,5.14,0,0,1-.34,1.84,4.12,4.12,0,0,1-1,1.48,4.45,4.45,0,0,1-1.57,1,5.66,5.66,0,0,1-2.13.37,7.38,7.38,0,0,1-2.65-.52,7.36,7.36,0,0,1-1.15-.6,5.27,5.27,0,0,1-1-.78l.79-1.29a.87.87,0,0,1,.26-.24.67.67,0,0,1,.34-.09,1,1,0,0,1,.54.21l.69.45a4.47,4.47,0,0,0,.93.45,3.56,3.56,0,0,0,1.29.21,2.67,2.67,0,0,0,1.78-.54,2,2,0,0,0,.63-1.57,1.46,1.46,0,0,0-.29-.93,2.42,2.42,0,0,0-.75-.61,5.82,5.82,0,0,0-1.07-.41c-.4-.11-.81-.24-1.22-.37a9.08,9.08,0,0,1-1.22-.48,4,4,0,0,1-1.07-.73,3.17,3.17,0,0,1-.76-1.13,4.23,4.23,0,0,1-.28-1.66,3.92,3.92,0,0,1,.31-1.54,4,4,0,0,1,.92-1.33,4.35,4.35,0,0,1,1.48-.93,5.48,5.48,0,0,1,2-.35,6.68,6.68,0,0,1,2.36.4,5.41,5.41,0,0,1,1.84,1.12Z"/><path d="M299.14,67h-2.08a.9.9,0,0,1-.57-.17,1.09,1.09,0,0,1-.33-.44l-1.08-3h-6l-1.08,3a1.09,1.09,0,0,1-.31.42.87.87,0,0,1-.57.19H285l5.69-14.46h2.74Zm-4.75-5.46-1.76-4.81a8.06,8.06,0,0,1-.27-.76c-.1-.29-.19-.61-.28-.95q-.13.51-.27,1l-.27.77-1.75,4.79Z"/><path d="M312.12,59.75V65.6a7.62,7.62,0,0,1-2.34,1.19,9.19,9.19,0,0,1-2.66.37,8.86,8.86,0,0,1-3.21-.55,7.28,7.28,0,0,1-2.45-1.53,6.5,6.5,0,0,1-1.56-2.34,7.81,7.81,0,0,1-.55-3,8,8,0,0,1,.53-3,6.63,6.63,0,0,1,1.5-2.34,6.76,6.76,0,0,1,2.37-1.52,8.51,8.51,0,0,1,3.12-.54,9.45,9.45,0,0,1,1.64.14,8.41,8.41,0,0,1,1.42.38,6.3,6.3,0,0,1,1.19.6,6.46,6.46,0,0,1,1,.77l-.77,1.22a.79.79,0,0,1-.47.36.85.85,0,0,1-.63-.15l-.66-.38a3.85,3.85,0,0,0-.74-.33,6.35,6.35,0,0,0-.91-.23,6.67,6.67,0,0,0-1.16-.09,5,5,0,0,0-1.94.36,4,4,0,0,0-1.47,1,4.59,4.59,0,0,0-.94,1.61,7,7,0,0,0,0,4.31,4.62,4.62,0,0,0,1,1.65,4.32,4.32,0,0,0,1.56,1,6.08,6.08,0,0,0,3.46.18,7,7,0,0,0,1.23-.46V61.77h-1.82a.54.54,0,0,1-.41-.15.45.45,0,0,1-.14-.35V59.75Z"/><path d="M327,67h-2.08a.9.9,0,0,1-.57-.17,1.09,1.09,0,0,1-.33-.44l-1.08-3h-6l-1.08,3a1.09,1.09,0,0,1-.31.42.87.87,0,0,1-.57.19h-2.1l5.69-14.46h2.74Zm-4.75-5.46-1.76-4.81a8.06,8.06,0,0,1-.27-.76c-.1-.29-.19-.61-.28-.95q-.13.51-.27,1l-.27.77-1.75,4.79Z"/></g></g></svg>