<svg xmlns="http://www.w3.org/2000/svg" viewBox="0 0 604 344"><defs><style>.cls-1{fill:#1d1c1a;}.cls-2{fill:#00b0e0;}</style></defs><title>delegated_tm</title><g id="Warstwa_2" data-name="Warstwa 2"><g id="Warstwa_1-2" data-name="Warstwa 1"><path class="cls-1" d="M412.31,124h-224a10,10,0,0,1-10-10V10a10,10,0,0,1,10-10h224a10,10,0,0,1,10,10V114A10,10,0,0,1,412.31,124ZM188.31,4a6,6,0,0,0-6,6V114a6,6,0,0,0,6,6h224a6,6,0,0,0,6-6V10a6,6,0,0,0-6-6Z"/><path class="cls-1" d="M234,344H10A10,10,0,0,1,0,334V230a10,10,0,0,1,10-10H234a10,10,0,0,1,10,10V334A10,10,0,0,1,234,344ZM10,224a6,6,0,0,0-6,6V334a6,6,0,0,0,6,6H234a6,6,0,0,0,6-6V230a6,6,0,0,0-6-6Z"/><path class="cls-1" d="M594,344H370a10,10,0,0,1-10-10V230a10,10,0,0,1,10-10H594a10,10,0,0,1,10,10V334A10,10,0,0,1,594,344ZM370,224a6,6,0,0,0-6,6V334a6,6,0,0,0,6,6H594a6,6,0,0,0,6-6V230a6,6,0,0,0-6-6Z"/><path class="cls-2" d="M264.59,169.69l-.71-23.29a1.88,1.88,0,0,0-.58-1.34,2.32,2.32,0,0,0-1.37-.61l-23.33-.71a2.44,2.44,0,0,0-2.24,2,1.91,1.91,0,0,0,.6,1.39,2.11,2.11,0,0,0,1.48.64l18.77.56-40.59,40.59a2,2,0,0,0,0,2.83,2,2,0,0,0,2.83,0L260,151.12l.56,18.71a2.33,2.33,0,0,0,.74,1.55,1.89,1.89,0,0,0,1.3.59A2.43,2.43,0,0,0,264.59,169.69Z"/><path class="cls-2" d="M338.69,144.42a1.9,1.9,0,0,0-1.34.58,2.32,2.32,0,0,0-.61,1.37L336,169.71a2.45,2.45,0,0,0,2,2.24,1.89,1.89,0,0,0,1.39-.61,2,2,0,0,0,.64-1.48l.56-18.77,40.59,40.59a2,2,0,0,0,2.83,0,2,2,0,0,0,.59-1.41,2,2,0,0,0-.59-1.42l-40.59-40.59,18.71-.55a2.39,2.39,0,0,0,1.55-.75,1.85,1.85,0,0,0,.59-1.3,2.41,2.41,0,0,0-2.28-1.94Z"/><path d="M241.51,41.24h-4.36V53.49h-2.69V41.24H230.1V39h11.41Z"/><path d="M254.7,53.49h-2.43a1.08,1.08,0,0,1-1-.54l-3-4.63a1,1,0,0,0-.38-.37,1.22,1.22,0,0,0-.6-.12H246.1v5.66h-2.69V39h4.41a9.26,9.26,0,0,1,2.52.3,4.76,4.76,0,0,1,1.73.86,3.36,3.36,0,0,1,1,1.31,4.39,4.39,0,0,1,.32,1.69,4.53,4.53,0,0,1-.22,1.38,3.94,3.94,0,0,1-1.62,2.1,4.92,4.92,0,0,1-1.35.63,3.34,3.34,0,0,1,.48.36,2.84,2.84,0,0,1,.4.49Zm-6.92-7.58a4.07,4.07,0,0,0,1.32-.2,2.45,2.45,0,0,0,.93-.52,2.17,2.17,0,0,0,.55-.79,2.8,2.8,0,0,0,.18-1A2,2,0,0,0,250,41.7a3.41,3.41,0,0,0-2.21-.59H246.1v4.8Z"/><path d="M268.66,53.49h-2.08a.85.85,0,0,1-.57-.18,1.06,1.06,0,0,1-.33-.43l-1.08-3h-6l-1.08,3a1,1,0,0,1-.31.41.88.88,0,0,1-.57.2h-2.1L260.24,39H263ZM263.91,48l-1.76-4.82a7.78,7.78,0,0,1-.27-.75c-.1-.3-.19-.62-.28-1q-.14.51-.27,1c-.1.3-.19.55-.27.78L259.31,48Z"/><path d="M282.35,39V53.49H281a1.2,1.2,0,0,1-.54-.11A1.3,1.3,0,0,1,280,53l-7.55-9.65c0,.45.06.85.06,1.23v8.88h-2.37V39h1.7a.69.69,0,0,1,.41.19l.2.23,7.58,9.67c0-.23,0-.46-.05-.68s0-.44,0-.63V39Z"/><path d="M293.27,41.66a1,1,0,0,1-.26.3.58.58,0,0,1-.33.09.89.89,0,0,1-.46-.15l-.58-.35a5.5,5.5,0,0,0-.8-.34,3.4,3.4,0,0,0-1.07-.16,3.17,3.17,0,0,0-1,.14,2.09,2.09,0,0,0-.71.38,1.46,1.46,0,0,0-.42.57,1.78,1.78,0,0,0-.14.74,1.3,1.3,0,0,0,.28.85,2.26,2.26,0,0,0,.76.57,7.2,7.2,0,0,0,1.07.44c.4.12.81.26,1.23.4a10.92,10.92,0,0,1,1.23.5,4.37,4.37,0,0,1,1.07.72,3.28,3.28,0,0,1,.75,1.06A3.74,3.74,0,0,1,294.2,49a5,5,0,0,1-.34,1.83,4.16,4.16,0,0,1-1,1.49,4.59,4.59,0,0,1-1.57,1,5.87,5.87,0,0,1-2.13.37,7.12,7.12,0,0,1-2.65-.53,6.56,6.56,0,0,1-1.15-.59,6.27,6.27,0,0,1-1-.78l.79-1.29a.78.78,0,0,1,.6-.34,1,1,0,0,1,.54.21c.19.14.42.29.69.46a5.77,5.77,0,0,0,.93.45,3.56,3.56,0,0,0,1.29.21A2.67,2.67,0,0,0,291,50.9a2,2,0,0,0,.63-1.57,1.45,1.45,0,0,0-.29-.92,2.28,2.28,0,0,0-.75-.61,6.63,6.63,0,0,0-1.07-.42c-.4-.11-.81-.23-1.22-.37a10.59,10.59,0,0,1-1.22-.47,3.79,3.79,0,0,1-1.07-.74,3.22,3.22,0,0,1-.76-1.12A4.32,4.32,0,0,1,285,43a3.95,3.95,0,0,1,1.23-2.86,4.52,4.52,0,0,1,1.48-.94,5.48,5.48,0,0,1,2-.34,6.91,6.91,0,0,1,2.36.39,5.57,5.57,0,0,1,1.84,1.12Z"/><path d="M308.64,53.49h-2.08a.85.85,0,0,1-.57-.18,1.06,1.06,0,0,1-.33-.43l-1.08-3h-6l-1.08,3a1,1,0,0,1-.31.41.88.88,0,0,1-.57.2h-2.1L300.22,39H303ZM303.89,48l-1.76-4.82a7.78,7.78,0,0,1-.27-.75c-.1-.3-.19-.62-.28-1q-.13.51-.27,1c-.1.3-.19.55-.27.78L299.29,48Z"/><path d="M319.64,50.08a.53.53,0,0,1,.39.17l1.06,1.15a5.94,5.94,0,0,1-2.17,1.67,7.56,7.56,0,0,1-3.08.58,7.25,7.25,0,0,1-2.9-.56,6.2,6.2,0,0,1-2.19-1.52,6.73,6.73,0,0,1-1.4-2.34,8.91,8.91,0,0,1-.48-3,8.18,8.18,0,0,1,.52-3,6.73,6.73,0,0,1,1.46-2.33,6.51,6.51,0,0,1,2.25-1.53,7.62,7.62,0,0,1,2.91-.54,7.24,7.24,0,0,1,2.8.51,6.83,6.83,0,0,1,2.09,1.37L320,42a1,1,0,0,1-.21.21.66.66,0,0,1-.34.08.6.6,0,0,1-.31-.08l-.35-.21-.44-.27a2.84,2.84,0,0,0-.58-.28,5.62,5.62,0,0,0-.77-.21,5,5,0,0,0-1-.08,4.48,4.48,0,0,0-1.78.34,3.72,3.72,0,0,0-1.38,1,4.54,4.54,0,0,0-.9,1.6,6.52,6.52,0,0,0-.32,2.15,6.3,6.3,0,0,0,.34,2.17A4.72,4.72,0,0,0,312.9,50a3.93,3.93,0,0,0,1.39,1,4.26,4.26,0,0,0,1.72.35,7.43,7.43,0,0,0,1-.07,4.72,4.72,0,0,0,.82-.18,3.57,3.57,0,0,0,.71-.34,4.85,4.85,0,0,0,.67-.5.62.62,0,0,1,.21-.15A.46.46,0,0,1,319.64,50.08Z"/><path d="M333,41.24h-4.36V53.49H326V41.24h-4.37V39H333Z"/><path d="M337.64,53.49h-2.7V39h2.7Z"/><path d="M354.65,46.25a8.06,8.06,0,0,1-.52,3,7.07,7.07,0,0,1-1.48,2.34,6.75,6.75,0,0,1-2.32,1.55,7.75,7.75,0,0,1-3,.56,7.84,7.84,0,0,1-3-.56A6.62,6.62,0,0,1,342,51.54a7.12,7.12,0,0,1-1.5-2.34,8.45,8.45,0,0,1,0-5.89A7.16,7.16,0,0,1,342,41a6.74,6.74,0,0,1,2.31-1.54,7.84,7.84,0,0,1,3-.55,8,8,0,0,1,2.07.25,7.29,7.29,0,0,1,1.79.72A6.65,6.65,0,0,1,352.64,41a6.42,6.42,0,0,1,1.09,1.49,7.16,7.16,0,0,1,.69,1.78A8.26,8.26,0,0,1,354.65,46.25Zm-2.75,0a6.44,6.44,0,0,0-.32-2.13,4.53,4.53,0,0,0-.91-1.61,4.08,4.08,0,0,0-1.43-1,5.51,5.51,0,0,0-3.81,0,4.21,4.21,0,0,0-1.44,1,4.71,4.71,0,0,0-.92,1.61,7.28,7.28,0,0,0,0,4.27A4.57,4.57,0,0,0,344,50a4.08,4.08,0,0,0,1.44,1,5.51,5.51,0,0,0,3.81,0,4,4,0,0,0,1.43-1,4.4,4.4,0,0,0,.91-1.6A6.46,6.46,0,0,0,351.9,46.25Z"/><path d="M369.21,39V53.49h-1.38a1.19,1.19,0,0,1-.53-.11,1.3,1.3,0,0,1-.41-.35l-7.56-9.65a11,11,0,0,1,.07,1.23v8.88H357V39h1.71a.69.69,0,0,1,.41.19,2.92,2.92,0,0,1,.19.23l7.59,9.67c0-.23,0-.46-.05-.68s0-.44,0-.63V39Z"/><path d="M267.33,63V77.49H265V68.15c0-.38,0-.78.06-1.21l-4.37,8.21a1,1,0,0,1-.95.59h-.38a1,1,0,0,1-.95-.59L254,66.91c0,.21,0,.43.05.64s0,.41,0,.6v9.34h-2.37V63H254a.86.86,0,0,1,.24,0,.8.8,0,0,1,.19.13,1.81,1.81,0,0,1,.16.25l4.33,8c.11.21.22.43.32.66l.28.69c.09-.24.19-.48.29-.71s.21-.45.32-.67l4.27-8a1.21,1.21,0,0,1,.17-.25.86.86,0,0,1,.2-.13.79.79,0,0,1,.23,0h2.34Z"/><path d="M282.94,77.49h-2.08a.88.88,0,0,1-.57-.18,1.06,1.06,0,0,1-.33-.43l-1.08-3h-6l-1.08,3a.92.92,0,0,1-.31.41.84.84,0,0,1-.57.2h-2.1L274.52,63h2.74ZM278.19,72l-1.76-4.82a7.78,7.78,0,0,1-.27-.75c-.09-.3-.19-.62-.28-1q-.13.51-.27,1c-.09.3-.18.55-.27.78L273.59,72Z"/><path d="M296.63,63V77.49h-1.38a1.19,1.19,0,0,1-.53-.11,1.23,1.23,0,0,1-.42-.35l-7.55-9.65c0,.45.06.85.06,1.23v8.88h-2.37V63h1.71a.79.79,0,0,1,.22.06.68.68,0,0,1,.18.13,1.65,1.65,0,0,1,.2.23l7.58,9.67c0-.23,0-.46-.05-.68s0-.44,0-.63V63Z"/><path d="M312.24,77.49h-2.08a.88.88,0,0,1-.57-.18,1.06,1.06,0,0,1-.33-.43l-1.08-3h-6l-1.08,3a.92.92,0,0,1-.31.41.84.84,0,0,1-.57.2h-2.1L303.82,63h2.74ZM307.49,72l-1.76-4.82a7.78,7.78,0,0,1-.27-.75c-.09-.3-.19-.62-.28-1q-.14.51-.27,1c-.09.3-.18.55-.27.78L302.89,72Z"/><path d="M325.23,70.24v5.84a7.62,7.62,0,0,1-2.34,1.19,9.21,9.21,0,0,1-2.67.38,8.77,8.77,0,0,1-3.2-.56,7,7,0,0,1-2.45-1.52A6.84,6.84,0,0,1,313,73.23a7.82,7.82,0,0,1-.55-3,8.28,8.28,0,0,1,.53-3,6.69,6.69,0,0,1,1.51-2.34,6.56,6.56,0,0,1,2.36-1.51,8.38,8.38,0,0,1,3.12-.54,9.6,9.6,0,0,1,1.65.13,9.81,9.81,0,0,1,1.42.39,5.77,5.77,0,0,1,1.19.6,7.62,7.62,0,0,1,1,.76L324.45,66a.74.74,0,0,1-.47.35.86.86,0,0,1-.63-.14l-.66-.39a4.46,4.46,0,0,0-.73-.32,4.65,4.65,0,0,0-.91-.23,6.79,6.79,0,0,0-1.17-.09,5.14,5.14,0,0,0-1.93.35,4.2,4.2,0,0,0-1.48,1,4.64,4.64,0,0,0-.94,1.62,6.24,6.24,0,0,0-.33,2.09,6.38,6.38,0,0,0,.36,2.22,4.43,4.43,0,0,0,1,1.65,4.26,4.26,0,0,0,1.55,1,5.48,5.48,0,0,0,2,.35,5.24,5.24,0,0,0,1.43-.17,7,7,0,0,0,1.23-.45V72.25H321a.52.52,0,0,1-.4-.14.48.48,0,0,1-.15-.36V70.24Z"/><path d="M330.53,65.17v4h5.06v2.08h-5.06v4.08H337v2.16h-9.12V63H337v2.14Z"/><path d="M350.62,77.49h-2.43a1.09,1.09,0,0,1-1-.54l-3-4.63a1,1,0,0,0-.37-.37,1.24,1.24,0,0,0-.61-.12H342v5.66h-2.69V63h4.41a9.39,9.39,0,0,1,2.53.3,4.76,4.76,0,0,1,1.73.86,3.24,3.24,0,0,1,1,1.31,4.39,4.39,0,0,1,.32,1.69,4.52,4.52,0,0,1-.21,1.38,4.29,4.29,0,0,1-.62,1.18,4.2,4.2,0,0,1-1,.92,4.85,4.85,0,0,1-1.36.63,3.34,3.34,0,0,1,.48.36,2.44,2.44,0,0,1,.4.49Zm-6.92-7.58a4.09,4.09,0,0,0,1.33-.2,2.62,2.62,0,0,0,.93-.52,2.14,2.14,0,0,0,.54-.79,2.8,2.8,0,0,0,.18-1A2,2,0,0,0,346,65.7a3.46,3.46,0,0,0-2.22-.59H342v4.8Z"/></g></g></svg>