<svg xmlns="http://www.w3.org/2000/svg" viewBox="0 0 604 344"><defs><style>.cls-1{fill:#1d1c1a;}.cls-2{fill:#27b04b;}.cls-3{fill:#ec2027;}.cls-4{fill:#00b0e0;}</style></defs><title>inconsistency</title><g id="Warstwa_2" data-name="Warstwa 2"><g id="Warstwa_1-2" data-name="Warstwa 1"><path class="cls-1" d="M412.31,124h-224a10,10,0,0,1-10-10V10a10,10,0,0,1,10-10h224a10,10,0,0,1,10,10V114A10,10,0,0,1,412.31,124ZM188.31,4a6,6,0,0,0-6,6V114a6,6,0,0,0,6,6h224a6,6,0,0,0,6-6V10a6,6,0,0,0-6-6Z"/><path class="cls-2" d="M234,344H10A10,10,0,0,1,0,334V230a10,10,0,0,1,10-10H234a10,10,0,0,1,10,10V334A10,10,0,0,1,234,344ZM10,224a6,6,0,0,0-6,6V334a6,6,0,0,0,6,6H234a6,6,0,0,0,6-6V230a6,6,0,0,0-6-6Z"/><path class="cls-3" d="M594,344H370a10,10,0,0,1-10-10V230a10,10,0,0,1,10-10H594a10,10,0,0,1,10,10V334A10,10,0,0,1,594,344ZM370,224a6,6,0,0,0-6,6V334a6,6,0,0,0,6,6H594a6,6,0,0,0,6-6V230a6,6,0,0,0-6-6Z"/><path class="cls-4" d="M216,166.33l.71,23.29a1.88,1.88,0,0,0,.58,1.34,2.32,2.32,0,0,0,1.37.61l23.33.71a2.44,2.44,0,0,0,2.24-2,1.91,1.91,0,0,0-.6-1.39,2.11,2.11,0,0,0-1.48-.64l-18.77-.56L264,147.14a2,2,0,0,0,0-2.83,2,2,0,0,0-2.83,0L220.58,184.9,220,166.19a2.33,2.33,0,0,0-.74-1.55,1.89,1.89,0,0,0-1.3-.59A2.43,2.43,0,0,0,216,166.33Z"/><path class="cls-4" d="M381.93,191.56a1.87,1.87,0,0,0,1.34-.57,2.35,2.35,0,0,0,.61-1.38l.71-23.33a2.45,2.45,0,0,0-2-2.24,1.88,1.88,0,0,0-1.39.6,2.05,2.05,0,0,0-.64,1.48L380,184.9l-40.59-40.6a2,2,0,1,0-2.83,2.83l40.59,40.6-18.71.55A2.33,2.33,0,0,0,357,189a1.9,1.9,0,0,0-.59,1.31,2.42,2.42,0,0,0,2.28,1.94Z"/></g></g></svg>