<?xml version="1.0" encoding="utf-8"?>
<!-- Generator: Adobe Illustrator 23.0.1, SVG Export Plug-In . SVG Version: 6.00 Build 0)  -->
<svg version="1.1" id="Warstwa_1" xmlns="http://www.w3.org/2000/svg" xmlns:xlink="http://www.w3.org/1999/xlink" x="0px" y="0px"
	 viewBox="0 0 200 37.1500015" style="enable-background:new 0 0 200 37.1500015;" xml:space="preserve">
<style type="text/css">
	.st0{fill:#1D1D1B;}
	.st1{fill:#00AFE0;}
</style>
<g>
	<path class="st0" d="M29.9091415,9.0025177c-5.3145847,0-9.6221104,4.3081131-9.6221104,9.6226997
		s4.3075256,9.6226978,9.6221104,9.6226978c2.6573601,0,5.0631752-1.0771446,6.8040123-2.8185711l-2.2393036-2.2393093
		c-1.1678162,1.168396-2.7824783,1.8907661-4.5647087,1.8907661c-3.0328236,0-5.5764561-2.0923195-6.2688465-4.9121857h15.8909588
		v-1.5669174c0-0.0079956,0-0.015522-0.0010605-0.0235176C39.5049133,13.2859364,35.207737,9.0025177,29.9091415,9.0025177z
		 M29.9091415,12.1697493c3.0328255,0,5.5764656,2.0923214,6.2689667,4.9126558H23.640295
		C24.3326855,14.2620707,26.876318,12.1697493,29.9091415,12.1697493z"/>
	<path class="st0" d="M50.1949959,9.0025177c-5.3145828,0-9.6221085,4.3081131-9.6221085,9.6226997
		s4.3075256,9.6226978,9.6221085,9.6226978c2.6573601,0,5.0631752-1.0771446,6.8040123-2.8185711l-2.2393036-2.2393093
		c-1.1678162,1.168396-2.7813034,1.8907661-4.5647087,1.8907661c-3.0328217,0-5.5764542-2.0923195-6.2677879-4.9121857h15.8910751
		v-1.6364136c0-0.0310459-0.0034103-0.0619717-0.0045853-0.0924282
		C59.7137451,13.2112646,55.4476204,9.0025177,50.1949959,9.0025177z M50.1949959,12.1697493
		c3.0340004,0,5.5764656,2.0923214,6.2688484,4.9126558H43.9272079
		C44.6185417,14.2620707,47.1621742,12.1697493,50.1949959,12.1697493z"/>
	<path class="st1" d="M116.1293793,18.6252174c0-5.3145866-4.3087006-9.6226997-9.6221161-9.6226997
		c-5.3145828,0-9.6232834,4.3081131-9.6232834,9.6226997s4.3087006,9.6226978,9.6232834,9.6226978
		c2.6561813,0,5.0630569-1.0771446,6.8040237-2.8185711l-2.2393188-2.2393093
		c-1.1689911,1.168396-2.7824707,1.8907661-4.5647049,1.8907661c-3.0339966,0-5.5764618-2.0923195-6.268959-4.9121857h15.8910751
		v-1.069149V18.6252174z M106.5072632,12.1697493c3.0328369,0,5.5764694,2.0923214,6.2677994,4.9126558h-12.5367584
		C100.9308014,14.2620707,103.4732666,12.1697493,106.5072632,12.1697493z"/>
	<path class="st1" d="M92.9714432,18.0263195c-1.9854279-0.7636452-3.8228073-0.7389507-5.5890427-1.1012535
		c-1.9326324-0.3691216-2.9122925-0.8905258-2.9122925-2.338088c0-0.8325539,0.4628448-1.4480324,1.4148712-1.8815956
		c0.7257919-0.3294935,1.6087799-0.4965925,2.6263046-0.4965925c1.0162354,0,1.8878326,0.167099,2.5918579,0.4965925
		c0.9519043,0.4335632,1.4159241,1.0490417,1.4159241,1.8815956v0.1326437h3.2509689V14.586978
		c0-1.7356634-0.8188019-3.1545324-2.4356995-4.2173319c-1.3964081-0.9152212-3.0189438-1.3791227-4.8230515-1.3791227
		c-1.8511276,0-3.473793,0.464489-4.8231659,1.3785343c-1.61689,1.0392818-2.4356918,2.458621-2.4356918,4.2179203
		c0,2.289876,1.0324631,3.8505621,3.0764542,4.6393709c0.1412277,0.0477428,0.6626434,0.2584686,1.5927963,0.453083
		c0.956604,0.2009659,2.3093872,0.3750019,4.0238876,0.7257805c1.9096985,0.3692398,2.8778305,0.7108459,2.8778305,2.2243767
		c0,1.6007843-1.4102783,2.3787746-4.3121109,2.3787746c-1.1759186,0-2.1050186-0.1446381-2.7687073-0.4322681
		c-1.0622101-0.4116917-1.577858-1.0478668-1.577858-1.9465065v-0.1326447h-3.2188492v0.1326447
		c0,1.7828178,0.8543015,3.2252045,2.5424576,4.2885933c0.7303696,0.433445,1.5169449,0.7688179,2.3403244,0.9978886
		c0.8233795,0.2278938,1.7260208,0.3439579,2.6826324,0.3439579c0.9564972,0,1.8533783-0.1160641,2.6653519-0.3445473
		c0.8118591-0.2284813,1.5927887-0.5638542,2.325386-0.999651c1.6858063-1.0616245,2.5402298-2.5034237,2.5402298-4.2862415
		C96.0422516,20.3627605,95.0097961,18.8106594,92.9714432,18.0263195z"/>
	<path class="st1" d="M169.3387299,18.6252174c0-5.3145866-4.3075104-9.6226997-9.6221008-9.6226997
		s-9.623291,4.3081131-9.623291,9.6226997s4.3087006,9.6226978,9.623291,9.6226978
		c2.6573486,0,5.0631714-1.0771446,6.8040161-2.8185711l-2.2393188-2.2393093
		c-1.1678162,1.168396-2.7824707,1.8907661-4.5646973,1.8907661c-3.0339966,0-5.5764618-2.0923195-6.2688446-4.9121857h15.8909454
		v-1.069149V18.6252174z M159.716629,12.1697493c3.0328369,0,5.5764618,2.0923214,6.2677917,4.9126558h-12.5366364
		C154.1401672,14.2620707,156.6826324,12.1697493,159.716629,12.1697493z"/>
	<path class="st1" d="M146.3140411,18.0263195c-1.9854279-0.7636452-3.8228149-0.7389507-5.5890503-1.1012535
		c-1.9326172-0.3691216-2.9121704-0.8905258-2.9121704-2.338088c0-0.8325539,0.4627228-1.4480324,1.4147491-1.8815956
		c0.7257843-0.3294935,1.6087799-0.4965925,2.6263123-0.4965925c1.0151672,0,1.8867798,0.167099,2.5918427,0.4965925
		c0.9519196,0.4335632,1.4147644,1.0490417,1.4147644,1.8815956v0.1326437h3.2521362V14.586978
		c0-1.7356634-0.8198547-3.1545324-2.4356842-4.2173319c-1.3964233-0.9152212-3.0189667-1.3791227-4.8230591-1.3791227
		c-1.8511353,0-3.4749756,0.464489-4.8231659,1.3785343c-1.6168976,1.0392818-2.4368744,2.458621-2.4368744,4.2179203
		c0,2.289876,1.0336456,3.8505621,3.0776367,4.6393709c0.1413422,0.0477428,0.6626282,0.2584686,1.5927887,0.453083
		c0.9554291,0.2009659,2.3093872,0.3750019,4.0227051,0.7257805c1.9108734,0.3692398,2.8790131,0.7108459,2.8790131,2.2243767
		c0,1.6007843-1.4101562,2.3787746-4.3121033,2.3787746c-1.1759338,0-2.1060791-0.1446381-2.7687073-0.4322681
		c-1.0622253-0.4116917-1.5778656-1.0478668-1.5778656-1.9465065v-0.1326447h-3.2188568v0.1326447
		c0,1.7828178,0.8543091,3.2252045,2.5424805,4.2885933c0.7291718,0.433445,1.5169373,0.7688179,2.3403168,0.9978886
		c0.8233795,0.2278938,1.7260284,0.3439579,2.6826324,0.3439579c0.9566193,0,1.853363-0.1160641,2.6653442-0.3445473
		c0.8106842-0.2284813,1.5927887-0.5638542,2.3253937-0.999651c1.6846161-1.0616245,2.5390472-2.5034237,2.5390472-4.2862415
		C149.383667,20.3627605,148.3523865,18.8106594,146.3140411,18.0263195z"/>
	<path class="st0" d="M172.2050629,23.8807716c-0.5891418,0-1.0805664,0.1986141-1.4767303,0.593605
		c-0.3951111,0.3962879-0.5937347,0.8882942-0.5937347,1.4768429c0,0.5879612,0.1986237,1.0805569,0.5937347,1.475666
		c0.3961639,0.3961697,0.8875885,0.5943127,1.4767303,0.5943127c0.5879669,0,1.0806732-0.198143,1.475647-0.5943127
		c0.3961792-0.3951092,0.5949097-0.8877048,0.5949097-1.475666c0-0.5885487-0.1987305-1.080555-0.5949097-1.4768429
		C173.2857361,24.0793858,172.7930298,23.8807716,172.2050629,23.8807716z"/>
	<path class="st0" d="M197.9295654,1.3394945c-0.5879669,0-1.0805664,0.198143-1.4756775,0.5937237
		c-0.3961639,0.3961686-0.5937195,0.8882927-0.5937195,1.4762543c0,0.5885496,0.1975555,1.0805559,0.5937195,1.4761367
		c0.3951111,0.3962865,0.8877106,0.5937238,1.4756775,0.5937238c0.5879517,0,1.0805359-0.1974373,1.4768219-0.5937238
		C199.8013916,4.4900284,200,3.9980221,200,3.4094725c0-0.5879617-0.1986084-1.0800858-0.5936127-1.4762543
		C199.0101013,1.5376375,198.5175171,1.3394945,197.9295654,1.3394945z"/>
	<g>
		<path class="st0" d="M68.3150406,31.6597404h2.3656006c0.9232178,0,1.4894257,0.5575066,1.4894257,1.3539581
			c0,0.6688652-0.4467316,1.1144218-0.9325104,1.2183762c0.5662079,0.0872536,1.0358734,0.6688652,1.0358734,1.3056259
			c0,0.8521919-0.5662079,1.4338036-1.5376282,1.4338036h-2.4207611V31.6597404z M70.5692825,33.9610214
			c0.5971298,0,0.9152222-0.3662987,0.9152222-0.8520737c0-0.4776611-0.3180923-0.8600693-0.9152222-0.8600693h-1.5927887v1.7121429
			H70.5692825z M70.601387,36.3823662c0.6212463,0,0.9875412-0.3507767,0.9875412-0.9163971
			c0-0.4851875-0.3352585-0.9158096-0.9875412-0.9158096h-1.6248932v1.8322067H70.601387z"/>
		<path class="st0" d="M77.6087112,31.6597404h0.6614609v5.3117638h-0.6614609V31.6597404z"/>
		<path class="st0" d="M86.3132629,31.5718994c0.9404907,0,1.5927734,0.4145126,2.062439,0.9956551l-0.5248108,0.3266716
			c-0.3352585-0.4300346-0.9002838-0.7327194-1.5376282-0.7327194c-1.162056,0-2.0463562,0.8917046-2.0463562,2.1578217
			c0,1.2585907,0.8843002,2.1664009,2.0463562,2.1664009c0.6373444,0,1.1633301-0.3106766,1.4262619-0.573616v-1.0829048h-1.823616
			v-0.589138h2.483902v1.9189873c-0.4937744,0.5493927-1.2183762,0.9158096-2.0865479,0.9158096
			c-1.5123672,0-2.7307434-1.1070137-2.7307434-2.7555389C83.5825195,32.6709175,84.8008957,31.5718994,86.3132629,31.5718994z"/>
		<path class="st0" d="M100.0994263,31.6597404h1.815506c1.6491241,0,2.7239151,1.1546402,2.7239151,2.6595879
			c0,1.5129395-1.074791,2.6521759-2.7239151,2.6521759h-1.815506V31.6597404z M101.9149323,36.3823662
			c1.2908096,0,2.038353-0.9238052,2.038353-2.0630379c0-1.1466446-0.7246094-2.0704498-2.038353-2.0704498h-1.1552277v4.1334877
			H101.9149323z"/>
		<path class="st0" d="M113.0093002,35.7926407h-2.691803l-0.4708405,1.1788635h-0.7314301l2.1335983-5.3117638h0.8199692
			l2.1427689,5.3117638h-0.7325974L113.0093002,35.7926407z M110.50811,35.2036209h2.3013992l-1.1461716-2.9547424
			L110.50811,35.2036209z"/>
		<path class="st0" d="M119.9694748,32.2488785h-1.6800461v-0.589138h4.0296555v0.589138h-1.6893311v4.7226257h-0.6602783
			V32.2488785z"/>
		<path class="st0" d="M130.2910309,35.7926407h-2.6918106l-0.4708328,1.1788635h-0.7325974l2.134758-5.3117638h0.8199768
			l2.1427612,5.3117638h-0.732605L130.2910309,35.7926407z M127.7898331,35.2036209h2.3012772l-1.1460419-2.9547424
			L127.7898331,35.2036209z"/>
		<path class="st0" d="M142.8816376,35.7209091c0.3503113,0.3904076,0.9233398,0.7568245,1.6720428,0.7568245
			c0.9473419,0,1.2505951-0.5098801,1.2505951-0.9158096c0-0.6373482-0.6454468-0.812561-1.3459625-1.0037689
			c-0.852066-0.2227173-1.7994995-0.4615479-1.7994995-1.5049438c0-0.8761826,0.7797394-1.4733162,1.8236084-1.4733162
			c0.8119659,0,1.4412079,0.2710495,1.8867645,0.740715l-0.398407,0.485775
			c-0.3973389-0.4381523-0.9554138-0.637352-1.5365753-0.637352c-0.6373444,0-1.0908966,0.3427811-1.0908966,0.8446655
			c0,0.5333977,0.6132355,0.6923828,1.2896271,0.8755913c0.8680878,0.230835,1.8557281,0.5017662,1.8557281,1.6168976
			c0,0.7722282-0.5259857,1.5605659-1.9590912,1.5605659c-0.9233246,0-1.6009064-0.3501892-2.0383453-0.8439598
			L142.8816376,35.7209091z"/>
		<path class="st0" d="M151.5460815,34.3193283c0-1.6324196,1.2022552-2.7474289,2.7077942-2.7474289
			c0.9634247,0,1.6168976,0.4541397,2.0383453,1.0512733l-0.5569153,0.3106804
			c-0.3031616-0.4461441-0.8520813-0.7723465-1.4814301-0.7723465c-1.1392365,0-2.023407,0.8917046-2.023407,2.1578217
			c0,1.2585907,0.8841705,2.1584053,2.023407,2.1584053c0.6293488,0,1.1782684-0.318676,1.4814301-0.772934l0.5649109,0.3106804
			c-0.4455566,0.6051292-1.0829163,1.0512733-2.0463409,1.0512733
			C152.7483368,37.0667534,151.5460815,35.9517441,151.5460815,34.3193283z"/>
		<path class="st0" d="M161.428894,31.6597404h0.6614532v5.3117638h-0.6614532V31.6597404z"/>
		<path class="st0" d="M167.6174164,31.6597404h3.4794464v0.589138h-2.8191681v1.7121429h2.7641296v0.589138h-2.7641296v1.8322067
			h2.8191681v0.589138h-3.4794464V31.6597404z"/>
		<path class="st0" d="M177.0937195,32.6869087v4.2845955h-0.6604004v-5.3117638h0.6763916l3.0581055,4.1966362v-4.1966362
			h0.6614685v5.3117638h-0.6373444L177.0937195,32.6869087z"/>
		<path class="st0" d="M186.1404419,34.3193283c0-1.6324196,1.2034607-2.7474289,2.7078094-2.7474289
			c0.9635468,0,1.6168976,0.4541397,2.0383453,1.0512733l-0.5569153,0.3106804
			c-0.3019867-0.4461441-0.8520813-0.7723465-1.4814301-0.7723465c-1.1379395,0-2.0222321,0.8917046-2.0222321,2.1578217
			c0,1.2585907,0.8842926,2.1584053,2.0222321,2.1584053c0.6293488,0,1.1794434-0.318676,1.4814301-0.772934l0.565033,0.3106804
			c-0.4455719,0.6051292-1.0829163,1.0512733-2.046463,1.0512733
			C187.3439026,37.0667534,186.1404419,35.9517441,186.1404419,34.3193283z"/>
		<path class="st0" d="M196.0244446,31.6597404h3.4795532v0.589138h-2.8192749v1.7121429h2.7641296v0.589138h-2.7641296v1.8322067
			h2.8192749v0.589138h-3.4795532V31.6597404z"/>
	</g>
	<path class="st0" d="M16.1597748,0v11.5656776c-1.7167301-1.5899658-4.0123682-2.5631599-6.5364876-2.5631599
		C4.308701,9.0025177,0,13.3112183,0,18.6252174c0,5.3145847,4.308701,9.6226978,9.6232872,9.6226978
		c2.5241194,0,4.8197575-0.9731941,6.5364876-2.5631599v2.5631599l3.085741,0.0017643V0.0004704L16.1597748,0z M9.6232872,25.080801
		c-3.5656285,0-6.4560485-2.890419-6.4560485-6.4555836c0-3.5650482,2.89042-6.4554682,6.4560485-6.4554682
		c3.565752,0,6.4549961,2.89042,6.4549961,6.4554682C16.0782833,22.190382,13.1890392,25.080801,9.6232872,25.080801z"/>
	<path class="st0" d="M70.4819107,9.0025177c-2.5240021,0-4.820816,0.9731941-6.5364876,2.5631599V8.3404722l-3.0867996,0.006938
		v28.6143322l3.0867996,0.0016479v-11.278635c1.7156715,1.5899658,4.0124855,2.5631599,6.5364876,2.5631599
		c5.31353,0,9.6222305-4.3081131,9.6222305-9.6226978C80.1041412,13.3112183,75.7954407,9.0025177,70.4819107,9.0025177z
		 M70.4819107,25.080801c-3.5656357,0-6.4560547-2.890419-6.4560547-6.4555836c0-3.5650482,2.890419-6.4554682,6.4560547-6.4554682
		c3.5645752,0,6.4549942,2.89042,6.4549942,6.4554682C76.9369049,22.190382,74.0464859,25.080801,70.4819107,25.080801z"/>
	<rect x="196.3873291" y="8.9905233" class="st0" width="3.0856233" height="19.2582741"/>
	<path class="st0" d="M191.213974,8.9905233v2.5751543c-1.7168579-1.5899658-4.0123596-2.5631599-6.536499-2.5631599
		c-5.3146973,0-9.6232758,4.3081131-9.6232758,9.6226997s4.3085785,9.6226978,9.6232758,9.6226978
		c2.5241394,0,4.8196411-0.9731941,6.536499-2.5631599v2.5631599l3.0856171,0.0017643V8.9905233H191.213974z M184.677475,25.080801
		c-3.5657501,0-6.4561615-2.890419-6.4561615-6.4555836c0-3.5650482,2.8904114-6.4554682,6.4561615-6.4554682
		c3.5656433,0,6.4548798,2.89042,6.4548798,6.4554682C191.1323547,22.190382,188.2431183,25.080801,184.677475,25.080801z"/>
	<path class="st1" d="M131.1361542,11.2791052c-1.4009857-1.6071348-3.1579361-2.4212265-5.2249756-2.4212265
		c-2.2922287,0-3.9595718,0.672863-5.228508,2.1140757v-1.981431h-3.2188568v19.030674l3.2188568,0.001646V16.6936455
		c0-1.26894,0.4547272-2.3678398,1.3516159-3.2653046c0.8980408-0.8974657,1.9969406-1.3521948,3.2658844-1.3521948
		c1.2689362,0,2.3679657,0.4547291,3.2660065,1.3521948c0.897934,0.8980522,1.3527832,1.996953,1.3527832,3.2653046v11.3275528
		l3.2521362,0.001646V16.6936455C133.1710968,14.6341324,132.4855347,12.8127441,131.1361542,11.2791052z"/>
</g>
</svg>
