<?xml version="1.0" encoding="utf-8"?>
<!-- Generator: Adobe Illustrator 23.0.1, SVG Export Plug-In . SVG Version: 6.00 Build 0)  -->
<svg version="1.1" id="Warstwa_1" xmlns="http://www.w3.org/2000/svg" xmlns:xlink="http://www.w3.org/1999/xlink" x="0px" y="0px"
	 viewBox="0 0 990.6699829 184.0399933" style="enable-background:new 0 0 990.6699829 184.0399933;" xml:space="preserve">
<style type="text/css">
	.st0{fill:#F9F9F9;}
</style>
<g>
	<path class="st0" d="M148.0502472,44.5624619c-26.3071899,0-47.6294403,21.3251572-47.6294403,47.6323624
		s21.3222504,47.6323547,47.6294403,47.6323547c13.1539307,0,25.0627136-5.3318634,33.6798706-13.9519272l-11.0845642-11.0845795
		c-5.7806854,5.7835617-13.7732697,9.3592911-22.5953064,9.3592911c-15.0124664,0-27.6034546-10.3569794-31.0307846-24.3153152
		h78.6602402v-7.7562408c0-0.0395813,0-0.0768356-0.005249-0.1164169
		C195.5493164,65.7653885,174.2783051,44.5624619,148.0502472,44.5624619z M148.0502472,60.2402573
		c15.0124969,0,27.6035156,10.3569946,31.0313873,24.3176498h-62.0621719
		C120.4467926,70.5972519,133.0377808,60.2402573,148.0502472,60.2402573z"/>
	<path class="st0" d="M248.4652252,44.5624619c-26.3071747,0-47.629425,21.3251572-47.629425,47.6323624
		s21.3222504,47.6323547,47.629425,47.6323547c13.1539459,0,25.0627289-5.3318634,33.6798553-13.9519272l-11.0845337-11.0845795
		c-5.7807007,5.7835617-13.7674561,9.3592911-22.5953217,9.3592911c-15.0124664,0-27.6034393-10.3569794-31.0255432-24.3153152
		h78.6608124v-8.1002502c0-0.1536789-0.0168762-0.3067551-0.0227051-0.4575195
		C295.5830383,65.3957596,274.4657288,44.5624619,248.4652252,44.5624619z M248.4652252,60.2402573
		c15.0182953,0,27.6035004,10.3569946,31.0308075,24.3176498H217.439682
		C220.8617859,70.5972519,233.4527588,60.2402573,248.4652252,60.2402573z"/>
	<path class="st0" d="M574.8404541,92.1948242c0-26.3072052-21.328125-47.6323624-47.6295166-47.6323624
		c-26.3071594,0-47.6352234,21.3251572-47.6352234,47.6323624s21.328064,47.6323547,47.6352234,47.6323547
		c13.1481323,0,25.0621338-5.3318634,33.6799316-13.9519272l-11.0846558-11.0845795
		c-5.786499,5.7835617-13.7731934,9.3592911-22.5952759,9.3592911c-15.0182495,0-27.6034851-10.3569794-31.0313416-24.3153152
		h78.6608582v-5.2922897V92.1948242z M527.2109375,60.2402573c15.0125732,0,27.6035156,10.3569946,31.0256348,24.3176498
		h-62.0569763C499.6074524,70.5972519,512.192688,60.2402573,527.2109375,60.2402573z"/>
	<path class="st0" d="M460.2086487,89.230278c-9.8278809-3.7800369-18.9229126-3.6577988-27.6657715-5.4512024
		c-9.5665283-1.8271484-14.4158325-4.4081039-14.4158325-11.5735321c0-4.1211472,2.2910767-7.1677628,7.0036011-9.3139
		c3.5926819-1.6309929,7.9634705-2.4581337,13.0002136-2.4581337c5.030365,0,9.3447571,0.8271408,12.8296814,2.4581337
		c4.7119446,2.1461372,7.0088501,5.1927528,7.0088501,9.3139v0.6565857h16.0922852v-0.6565857
		c0-8.5915375-4.0530701-15.6149368-12.0567017-20.8757973c-6.9122314-4.5303421-14.9437866-6.8266563-23.874115-6.8266563
		c-9.1630859,0-17.195282,2.299221-23.8746643,6.8237457c-8.0036316,5.1444435-12.0566711,12.1701736-12.0566711,20.8787079
		c0,11.3348846,5.1106873,19.0602798,15.2284241,22.9648819c0.6990967,0.2363281,3.2800903,1.2794189,7.8843384,2.2427597
		c4.735199,0.9947815,11.431488,1.8562622,19.9182434,3.5926132c9.4530334,1.8277435,14.2452698,3.518692,14.2452698,11.0106659
		c0,7.9238815-6.9808655,11.7749329-21.3449402,11.7749329c-5.8208008,0-10.4198608-0.7159576-13.7051086-2.1397247
		c-5.2579346-2.0378723-7.8103943-5.1869431-7.8103943-9.6352081v-0.6565857h-15.9332886v0.6565857
		c0,8.8249512,4.2287903,15.9647675,12.585144,21.2285309c3.6153259,2.1455536,7.5088806,3.8056488,11.5846252,4.9395599
		c4.0757141,1.128067,8.5437927,1.7025909,13.2790222,1.7025909c4.7346497,0,9.1742249-0.5745239,13.1934814-1.7055054
		c4.0187073-1.1309967,7.8843079-2.7910919,11.5106812-4.9482727c8.3447266-5.2550507,12.5741272-12.3919525,12.5741272-21.2169037
		C475.4091492,100.7956619,470.2984924,93.1127625,460.2086487,89.230278z"/>
	<path class="st0" d="M838.2266846,92.1948242c0-26.3072052-21.3221436-47.6323624-47.6293945-47.6323624
		c-26.3071899,0-47.6352539,21.3251572-47.6352539,47.6323624s21.328064,47.6323547,47.6352539,47.6323547
		c13.1538696,0,25.0627441-5.3318634,33.6799316-13.9519272l-11.0846558-11.0845795
		c-5.7807007,5.7835617-13.7732544,9.3592911-22.5952759,9.3592911c-15.0182495,0-27.6034546-10.3569794-31.0307617-24.3153152
		h78.6601562v-5.2922897V92.1948242z M790.59729,60.2402573c15.0125732,0,27.6035156,10.3569946,31.0255737,24.3176498h-62.0563354
		C762.9938354,70.5972519,775.5790405,60.2402573,790.59729,60.2402573z"/>
	<path class="st0" d="M724.2545166,89.230278c-9.8278809-3.7800369-18.9229736-3.6577988-27.6658325-5.4512024
		c-9.5664062-1.8271484-14.4152222-4.4081039-14.4152222-11.5735321c0-4.1211472,2.2904663-7.1677628,7.0029907-9.3139
		c3.5926514-1.6309929,7.963501-2.4581337,13.0002441-2.4581337c5.0250854,0,9.3395996,0.8271408,12.8296509,2.4581337
		c4.7119751,2.1461372,7.0030518,5.1927528,7.0030518,9.3139v0.6565857h16.0980835v-0.6565857
		c0-8.5915375-4.0582886-15.6149368-12.0566406-20.8757973c-6.9122925-4.5303421-14.9438477-6.8266563-23.8741455-6.8266563
		c-9.1630859,0-17.2011108,2.299221-23.8746338,6.8237457c-8.0036621,5.1444435-12.062561,12.1701736-12.062561,20.8787079
		c0,11.3348846,5.1165771,19.0602798,15.234314,22.9648819c0.699646,0.2363281,3.2800293,1.2794189,7.8842773,2.2427597
		c4.7294312,0.9947815,11.4315186,1.8562622,19.9124146,3.5926132c9.4588013,1.8277435,14.2510986,3.518692,14.2510986,11.0106659
		c0,7.9238815-6.9802246,11.7749329-21.3449097,11.7749329c-5.8208618,0-10.4250488-0.7159576-13.7050781-2.1397247
		c-5.2579956-2.0378723-7.8104248-5.1869431-7.8104248-9.6352081v-0.6565857h-15.9333496v0.6565857
		c0,8.8249512,4.2288208,15.9647675,12.5852661,21.2285309c3.609436,2.1455536,7.5088501,3.8056488,11.5845947,4.9395599
		c4.0756836,1.128067,8.5438232,1.7025909,13.2789917,1.7025909c4.7352905,0,9.1741943-0.5745239,13.1934814-1.7055054
		c4.0128784-1.1309967,7.8842773-2.7910919,11.5106812-4.9482727c8.3388672-5.2550507,12.5682983-12.3919525,12.5682983-21.2169037
		C739.4491577,100.7956619,734.3442993,93.1127625,724.2545166,89.230278z"/>
	<path class="st0" d="M852.4150391,118.209816c-2.9162598,0-5.3487549,0.9831467-7.3098145,2.9383469
		c-1.9557495,1.9616241-2.9389648,4.3970566-2.9389648,7.310379c0,2.9104004,0.9832153,5.3487549,2.9389648,7.3045349
		c1.9610596,1.9610443,4.3935547,2.9418488,7.3098145,2.9418488c2.9104614,0,5.3493652-0.9808044,7.3045044-2.9418488
		c1.9610596-1.95578,2.9447632-4.3941345,2.9447632-7.3045349c0-2.9133224-0.9837036-5.3487549-2.9447632-7.310379
		C857.7644043,119.1929626,855.3255005,118.209816,852.4150391,118.209816z"/>
	<path class="st0" d="M979.7513428,6.6304975c-2.9104004,0-5.3488159,0.9808083-7.3046265,2.9389329
		c-1.9609985,1.9610338-2.9389038,4.397048-2.9389038,7.3074579c0,2.9133205,0.9779053,5.348753,2.9389038,7.3068771
		c1.9558105,1.9616184,4.3942261,2.9389324,7.3046265,2.9389324c2.9103394,0,5.3486328-0.977314,7.3103027-2.9389324
		C989.0169067,22.2256413,990,19.7902088,990,16.8768883c0-2.9104099-0.9830933-5.3464241-2.9383545-7.3074589
		C985.0999756,7.6113057,982.6616821,6.6304975,979.7513428,6.6304975z"/>
	<g>
		<path class="st0" d="M338.1594543,156.7157135h11.7097168c4.5699158,0,7.3726501,2.7596588,7.3726501,6.7020874
			c0,3.3108826-2.2113037,5.5163879-4.6159058,6.0309753c2.8027039,0.4319,5.1275635,3.3108826,5.1275635,6.4628448
			c0,4.2183533-2.8027344,7.0973206-7.6112671,7.0973206h-11.9827576V156.7157135z M349.3179626,168.1070557
			c2.95578,0,4.5303345-1.8131714,4.5303345-4.2177582c0-2.3644257-1.5745544-4.2573547-4.5303345-4.2573547h-7.8843079v8.4751129
			H349.3179626z M349.4768677,180.0927124c3.0751648,0,4.8883362-1.7363434,4.8883362-4.5361633
			c0-2.4016876-1.6595459-4.5332642-4.8883362-4.5332642h-8.0432129v9.0694275H349.4768677z"/>
		<path class="st0" d="M384.1631165,156.7157135h3.274231v26.2932281h-3.274231V156.7157135z"/>
		<path class="st0" d="M427.2506409,156.280899c4.655426,0,7.8842468,2.0518341,10.2090759,4.9284973l-2.5978088,1.6170197
			c-1.6595154-2.1286621-4.4563904-3.6269531-7.6112671-3.6269531c-5.7521667,0-10.1294556,4.4139252-10.1294556,10.6812134
			c0,6.2300262,4.3772888,10.7236786,10.1294556,10.7236786c3.1548767,0,5.7584839-1.5378418,7.0599976-2.8394012v-5.3603668
			h-9.026886v-2.9162445h12.2953186v9.4989929c-2.4441833,2.7194977-6.0309753,4.5332642-10.3284302,4.5332642
			c-7.4862061,0-13.5171814-5.4797211-13.5171814-13.6399231
			C413.7334595,161.7210388,419.7644348,156.280899,427.2506409,156.280899z"/>
		<path class="st0" d="M495.492157,156.7157135h8.9867554c8.1631775,0,13.4833679,5.7154694,13.4833679,13.1649628
			c0,7.4890442-5.3201904,13.1282654-13.4833679,13.1282654h-8.9867554V156.7157135z M504.4789124,180.0927124
			c6.3894958,0,10.0898743-4.5728302,10.0898743-10.2120361c0-5.6758881-3.586853-10.2487335-10.0898743-10.2487335h-5.7183838
			v20.4607697H504.4789124z"/>
		<path class="st0" d="M559.3960571,177.1735687h-13.3244629l-2.3306274,5.8353729h-3.6206055l10.5613403-26.2932281h4.0588379
			l10.6066895,26.2932281h-3.6263428L559.3960571,177.1735687z M547.0151367,174.2579193h11.3919067l-5.6735229-14.6259766
			L547.0151367,174.2579193z"/>
		<path class="st0" d="M593.848877,159.6319427h-8.3162231v-2.9162292h19.9468384v2.9162292h-8.3622437v23.3769989h-3.2683716
			V159.6319427z"/>
		<path class="st0" d="M644.9406128,177.1735687h-13.3244629l-2.3306274,5.8353729h-3.6263428l10.5670166-26.2932281h4.0588989
			l10.6066895,26.2932281h-3.6264038L644.9406128,177.1735687z M632.5596924,174.2579193h11.3912964l-5.6729126-14.6259766
			L632.5596924,174.2579193z"/>
		<path class="st0" d="M707.2640991,176.8184967c1.7340698,1.9325256,4.5705566,3.7462921,8.2766113,3.7462921
			c4.6893311,0,6.1904297-2.5239105,6.1904297-4.5332642c0-3.1548767-3.1949463-4.022171-6.6624756-4.9686584
			c-4.2177124-1.1024475-8.9075317-2.284668-8.9075317-7.4494781c0-4.3370972,3.8596802-7.2929077,9.0268555-7.2929077
			c4.0192261,0,7.1339722,1.3416901,9.3394775,3.6665344l-1.9721069,2.4045868
			c-1.9668579-2.1688538-4.7293091-3.154892-7.6060181-3.154892c-3.1549072,0-5.3999634,1.6967773-5.3999634,4.1810913
			c0,2.6403198,3.0355225,3.4273071,6.383667,4.3341827c4.2969971,1.1426392,9.1858521,2.4837494,9.1858521,8.0036469
			c0,3.822525-2.6036377,7.7247925-9.6975098,7.7247925c-4.5704346,0-7.9244995-1.733429-10.0898438-4.177597
			L707.2640991,176.8184967z"/>
		<path class="st0" d="M750.1530762,169.8806763c0-8.0804749,5.9511719-13.5997772,13.4036255-13.5997772
			c4.7689209,0,8.0036011,2.2480011,10.0897827,5.2038116l-2.7567139,1.5378571
			c-1.5006714-2.2084045-4.2178345-3.8231049-7.3330688-3.8231049c-5.6392212,0-10.0158691,4.4139252-10.0158691,10.6812134
			c0,6.2300262,4.3766479,10.6841125,10.0158691,10.6841125c3.1152344,0,5.8323975-1.5774536,7.3330688-3.8260345
			l2.7963257,1.5378723c-2.2055054,2.9953918-5.3604736,5.2037964-10.1293945,5.2037964
			C756.104248,183.480423,750.1530762,177.9611359,750.1530762,169.8806763z"/>
		<path class="st0" d="M799.072998,156.7157135h3.274231v26.2932281h-3.274231V156.7157135z"/>
		<path class="st0" d="M829.7062378,156.7157135h17.2232056v2.9162292h-13.954834v8.4751129h13.6824341v2.9162292h-13.6824341
			v9.0694275h13.954834v2.9162292h-17.2232056V156.7157135z"/>
		<path class="st0" d="M876.6138916,161.8002014v21.2087402h-3.2689819v-26.2932281h3.3481445l15.1376343,20.7733459v-20.7733459
			h3.274292v26.2932281h-3.1548462L876.6138916,161.8002014z"/>
		<path class="st0" d="M921.3952026,169.8806763c0-8.0804749,5.9570923-13.5997772,13.4036255-13.5997772
			c4.7695923,0,8.0036621,2.2480011,10.0898438,5.2038116l-2.7567749,1.5378571
			c-1.494812-2.2084045-4.2177734-3.8231049-7.3330688-3.8231049c-5.6328125,0-10.0100098,4.4139252-10.0100098,10.6812134
			c0,6.2300262,4.3771973,10.6841125,10.0100098,10.6841125c3.1152954,0,5.8382568-1.5774536,7.3330688-3.8260345
			l2.796936,1.5378723c-2.2055664,2.9953918-5.3604126,5.2037964-10.1300049,5.2037964
			C927.3522949,183.480423,921.3952026,177.9611359,921.3952026,169.8806763z"/>
		<path class="st0" d="M970.3209839,156.7157135h17.2238159v2.9162292h-13.9554443v8.4751129h13.6824951v2.9162292h-13.6824951
			v9.0694275h13.9554443v2.9162292h-17.2238159V156.7157135z"/>
	</g>
	<path class="st0" d="M79.9908829,0v57.250103c-8.4978104-7.8703308-19.8612213-12.6876411-32.3556099-12.6876411
		C21.3280697,44.5624619,0,65.8905334,0,92.1948242c0,26.3071976,21.3280697,47.6323547,47.635273,47.6323547
		c12.4943886,0,23.8577995-4.8173065,32.3556099-12.6876373v12.6876373l15.2744217,0.008728V0.0023285L79.9908829,0z
		 M47.635273,124.1499634c-17.6498623,0-31.9574413-14.3075714-31.9574413-31.9551392
		c0-17.6469879,14.307579-31.954567,31.9574413-31.954567c17.6504707,0,31.9522285,14.307579,31.9522285,31.954567
		C79.5875015,109.842392,65.2857437,124.1499634,47.635273,124.1499634z"/>
	<path class="st0" d="M348.8854675,44.5624619c-12.4938049,0-23.8630371,4.8173103-32.3556213,12.6876411V41.2853394
		l-15.2796631,0.0343399v141.6409607l15.2796631,0.0081482v-55.8292389
		c8.4925842,7.8703308,19.8618164,12.6876373,32.3556213,12.6876373c26.3019714,0,47.6300354-21.3251572,47.6300354-47.6323547
		C396.5155029,65.8905334,375.187439,44.5624619,348.8854675,44.5624619z M348.8854675,124.1499634
		c-17.6499023,0-31.957489-14.3075714-31.957489-31.9551392c0-17.6469879,14.3075867-31.954567,31.957489-31.954567
		c17.6446228,0,31.9522095,14.307579,31.9522095,31.954567C380.837677,109.842392,366.5300903,124.1499634,348.8854675,124.1499634z
		"/>
	<rect x="972.1173096" y="44.5030899" class="st0" width="15.2738047" height="95.3284607"/>
	<path class="st0" d="M946.5091553,44.5030899V57.250103c-8.4984131-7.8703308-19.861145-12.6876411-32.3556519-12.6876411
		c-26.3077393,0-47.6351929,21.3251572-47.6351929,47.6323624s21.3274536,47.6323547,47.6351929,47.6323547
		c12.4945068,0,23.8572388-4.8173065,32.3556519-12.6876373v12.6876373l15.2738037,0.008728V44.5030899H946.5091553z
		 M914.1535034,124.1499634c-17.6504517,0-31.9580078-14.3075714-31.9580078-31.9551392
		c0-17.6469879,14.3075562-31.954567,31.9580078-31.954567c17.6499023,0,31.9516602,14.307579,31.9516602,31.954567
		C946.1051636,109.842392,931.8034058,124.1499634,914.1535034,124.1499634z"/>
	<path class="st0" d="M649.1239624,55.8315697c-6.9348755-7.9553146-15.6317749-11.9850693-25.8636475-11.9850693
		c-11.3464966,0-19.5998535,3.3306694-25.8811035,10.4646721v-9.8080826h-15.9333496v94.2018356l15.9333496,0.0081482V82.6335449
		c0-6.28125,2.2509155-11.7208099,6.6904907-16.1632538c4.4453125-4.4424591,9.8848877-6.693367,16.1661377-6.693367
		s11.7214355,2.2509079,16.166748,6.693367c4.4447632,4.4453583,6.6962891,9.8849106,6.6962891,16.1632538v56.0713806
		l16.0980225,0.0081482V82.6335449C659.1968994,72.4389572,655.8034058,63.4230843,649.1239624,55.8315697z"/>
</g>
</svg>
