<svg xmlns="http://www.w3.org/2000/svg" viewBox="0 0 200 37.15"><defs><style>.cls-1{fill:#1d1d1b;}.cls-2{fill:#00b0e0;}.cls-3{fill:#00afe0;}</style></defs><title>LOGO_DS_color</title><g id="Warstwa_2" data-name="Warstwa 2"><g id="Warstwa_1-2" data-name="Warstwa 1"><path class="cls-1" d="M29.86,9.05a9.65,9.65,0,0,0,0,19.29,9.46,9.46,0,0,0,6.82-2.83l-2.23-2.23a6.45,6.45,0,0,1-10.82-3.06H39.51V18.69h0A9.62,9.62,0,0,0,29.86,9.05Zm0,3.18a6.43,6.43,0,0,1,6.24,4.94H23.63A6.43,6.43,0,0,1,29.86,12.23Z"/><path class="cls-1" d="M50.09,9.05a9.65,9.65,0,0,0,0,19.29,9.5,9.5,0,0,0,6.82-2.83l-2.24-2.23a6.44,6.44,0,0,1-10.81-3.06H59.73V18.46A9.64,9.64,0,0,0,50.09,9.05Zm0,3.18a6.42,6.42,0,0,1,6.23,4.94H43.86A6.52,6.52,0,0,1,50.09,12.23Z"/><path class="cls-2" d="M116.05,18.69a9.64,9.64,0,1,0-9.64,9.65,9.5,9.5,0,0,0,6.82-2.83L111,23.28a6.44,6.44,0,0,1-10.81-3.06h15.87V18.69Zm-9.64-6.46a6.42,6.42,0,0,1,6.23,4.94H100.18A6.52,6.52,0,0,1,106.41,12.23Z"/><path class="cls-2" d="M92.89,18.11a35.38,35.38,0,0,0-5.65-1.06c-1.88-.35-2.94-.94-2.94-2.35a2.07,2.07,0,0,1,1.41-1.88,5.91,5.91,0,0,1,2.59-.47,5.59,5.59,0,0,1,2.59.47A2.07,2.07,0,0,1,92.3,14.7v.11h3.29V14.7a4.83,4.83,0,0,0-2.47-4.24A8.59,8.59,0,0,0,88.3,9.05a8.06,8.06,0,0,0-4.82,1.41A4.83,4.83,0,0,0,81,14.7a4.49,4.49,0,0,0,3.06,4.58c.12,0,.7.24,1.64.47s2.36.36,4,.71c1.88.35,2.82.7,2.82,2.23S91.12,25,88.18,25a6.34,6.34,0,0,1-2.82-.47c-1.06-.47-1.53-1.05-1.53-2v-.11H80.66v.11a4.72,4.72,0,0,0,2.59,4.24,5.79,5.79,0,0,0,2.35.94,10.19,10.19,0,0,0,2.7.35A10.32,10.32,0,0,0,91,27.75a8.74,8.74,0,0,0,2.35-1.06,5,5,0,0,0,2.58-4.23A4.27,4.27,0,0,0,92.89,18.11Z"/><path class="cls-2" d="M169.31,18.69a9.64,9.64,0,1,0-9.64,9.65,9.46,9.46,0,0,0,6.82-2.83l-2.23-2.23a6.5,6.5,0,0,1-4.59,1.88,6.41,6.41,0,0,1-6.23-4.94h15.87V18.69Zm-9.64-6.46a6.41,6.41,0,0,1,6.23,4.94H153.32A6.56,6.56,0,0,1,159.67,12.23Z"/><path class="cls-2" d="M146.27,18.11a35.38,35.38,0,0,0-5.65-1.06c-1.88-.35-2.94-.94-2.94-2.35a2.07,2.07,0,0,1,1.41-1.88,5.91,5.91,0,0,1,2.59-.47,5.59,5.59,0,0,1,2.59.47,2.07,2.07,0,0,1,1.41,1.88v.11H149V14.7a4.83,4.83,0,0,0-2.47-4.24,8.57,8.57,0,0,0-4.82-1.41,8.06,8.06,0,0,0-4.82,1.41,4.83,4.83,0,0,0-2.47,4.24,4.49,4.49,0,0,0,3.06,4.58c.12,0,.7.24,1.64.47s2.36.36,4,.71c1.88.35,2.82.7,2.82,2.23S144.5,25,141.56,25a6.34,6.34,0,0,1-2.82-.47c-1.06-.47-1.53-1.05-1.53-2v-.11H134v.11a4.72,4.72,0,0,0,2.59,4.24,5.79,5.79,0,0,0,2.35.94,10.19,10.19,0,0,0,2.7.35,10.32,10.32,0,0,0,2.71-.35,8.74,8.74,0,0,0,2.35-1.06,5,5,0,0,0,2.58-4.23A4.39,4.39,0,0,0,146.27,18.11Z"/><path class="cls-1" d="M172.13,23.87a2.43,2.43,0,0,0-1.52.59A2.19,2.19,0,0,0,170,26a2.44,2.44,0,0,0,.59,1.53,2.19,2.19,0,0,0,1.52.59,2.44,2.44,0,0,0,1.53-.59,2.2,2.2,0,0,0,.59-1.53,2,2,0,0,0-2.12-2.11Z"/><path class="cls-1" d="M197.88,1.41a2.49,2.49,0,0,0-1.52.59,2.2,2.2,0,0,0-.59,1.53,2.44,2.44,0,0,0,.59,1.53,2.23,2.23,0,0,0,1.52.58,2.48,2.48,0,0,0,1.53-.58A2.26,2.26,0,0,0,200,3.53,2.49,2.49,0,0,0,199.41,2,2,2,0,0,0,197.88,1.41Z"/><path class="cls-1" d="M68.31,31.75h2.35a1.39,1.39,0,0,1,1.53,1.41,1.15,1.15,0,0,1-.94,1.17A1.38,1.38,0,0,1,70.78,37H68.31ZM70.55,34a.83.83,0,1,0,0-1.65H68.9V34.1h1.65Zm0,2.47a.87.87,0,0,0,.94-.94.93.93,0,0,0-.94-.94H68.9v1.88Z"/><path class="cls-1" d="M77.6,31.75h.71V37H77.6Z"/><path class="cls-1" d="M86.3,31.63a3,3,0,0,1,2.12.94l-.47.35a1.89,1.89,0,0,0-1.53-.7,2.12,2.12,0,0,0,0,4.23,2.2,2.2,0,0,0,1.41-.59V34.8h-2v-.58H88.3v2a2.75,2.75,0,0,1-4.82-1.76A2.71,2.71,0,0,1,86.3,31.63Z"/><path class="cls-1" d="M100.06,31.75h1.76a2.7,2.7,0,1,1,0,5.4h-1.76Zm1.76,4.7a1.94,1.94,0,0,0,2-2.12,1.94,1.94,0,0,0-2-2.11h-1.17v4.11h1.17Z"/><path class="cls-1" d="M113,35.86h-2.7L109.82,37h-.71l2.12-5.29h.82L114.17,37h-.71Zm-2.58-.59h2.35l-1.18-2.94Z"/><path class="cls-1" d="M119.93,32.33h-1.65v-.58h4v.58h-1.65V37h-.7Z"/><path class="cls-1" d="M130.28,35.86h-2.71L127.1,37h-.7l2.11-5.29h.83L131.45,37h-.7Zm-2.59-.59H130l-1.17-2.94Z"/><path class="cls-1" d="M142.86,35.74a2.34,2.34,0,0,0,1.64.71c.94,0,1.3-.47,1.3-.94s-.59-.82-1.3-1.06-1.76-.47-1.76-1.53a1.74,1.74,0,0,1,1.88-1.53,2.49,2.49,0,0,1,1.88.71l-.35.47a1.81,1.81,0,0,0-1.53-.59c-.59,0-1.06.35-1.06.82s.59.71,1.3.83,1.88.47,1.88,1.64c0,.83-.47,1.53-2,1.53a2.45,2.45,0,0,1-2-.82Z"/><path class="cls-1" d="M151.44,34.33a2.59,2.59,0,0,1,2.7-2.7,2.27,2.27,0,0,1,2,1.06l-.58.35a1.85,1.85,0,0,0-1.53-.82,2.12,2.12,0,0,0,0,4.23,2,2,0,0,0,1.53-.82l.58.35a2.42,2.42,0,0,1-2,1.06A2.59,2.59,0,0,1,151.44,34.33Z"/><path class="cls-1" d="M161.32,31.75h.7V37h-.7Z"/><path class="cls-1" d="M167.55,31.75h3.53v.58h-2.83V34.1h2.83v.59h-2.83v1.88h2.83v.58h-3.53Z"/><path class="cls-1" d="M177.07,32.69v4.23h-.7V31.63h.7l3.06,4.23V31.63h.7v5.29h-.58Z"/><path class="cls-1" d="M186.13,34.33a2.59,2.59,0,0,1,2.7-2.7,2.28,2.28,0,0,1,2,1.06l-.59.35a1.83,1.83,0,0,0-1.53-.82,2.12,2.12,0,1,0,1.53,3.41l.59.35a2.44,2.44,0,0,1-2,1.06A2.53,2.53,0,0,1,186.13,34.33Z"/><path class="cls-1" d="M196,31.75h3.53v.58h-2.82V34.1h2.82v.59h-2.82v1.88h2.82v.58H196Z"/><path class="cls-1" d="M16.11,0V11.52A9.48,9.48,0,0,0,9.52,8.94a9.7,9.7,0,0,0,.12,19.4,9.66,9.66,0,0,0,6.59-2.59v2.59h3.05V.12ZM9.52,25.16a6.47,6.47,0,0,1,0-12.93A6.52,6.52,0,0,1,16,18.69,6.45,6.45,0,0,1,9.52,25.16Z"/><path class="cls-1" d="M70.43,9.05a9.66,9.66,0,0,0-6.59,2.59V8.35H60.79V36.92h3.05V25.63a9.45,9.45,0,0,0,6.59,2.59,9.59,9.59,0,1,0,0-19.17Zm0,16.11a6.47,6.47,0,1,1,6.47-6.47A6.53,6.53,0,0,1,70.43,25.16Z"/><rect class="cls-1" x="196.36" y="9.05" width="3.06" height="19.28"/><path class="cls-1" d="M191.18,9.05v2.59a9.42,9.42,0,0,0-6.58-2.59,9.65,9.65,0,1,0,6.58,16.7v2.59h3.06V9.05ZM184.6,25.16a6.47,6.47,0,1,1,6.46-6.47A6.53,6.53,0,0,1,184.6,25.16Z"/><path class="cls-3" d="M131.1,11.29a6.62,6.62,0,0,0-5.17-2.47,6.41,6.41,0,0,0-5.18,2.11V9.05h-3.17V28.1h3.17V16.81a4.8,4.8,0,0,1,1.3-3.29,4.32,4.32,0,0,1,3.29-1.29,4.84,4.84,0,0,1,3.29,1.29A4.45,4.45,0,0,1,130,16.81V28.1h3.29V16.81A10.07,10.07,0,0,0,131.1,11.29Z"/></g></g></svg>