<svg xmlns="http://www.w3.org/2000/svg" viewBox="0 0 990.67 184.04"><defs><style>.cls-1{fill:#f1f1f2;}</style></defs><title>LOGO_DS_grey</title><g id="Warstwa_2" data-name="Warstwa 2"><g id="Warstwa_1-2" data-name="Warstwa 1"><path class="cls-1" d="M147.93,44.85a47.76,47.76,0,1,0,0,95.51,47,47,0,0,0,33.78-14l-11.07-11.06a31.93,31.93,0,0,1-53.58-15.15h78.63V92.6h0A47.59,47.59,0,0,0,147.93,44.85Zm0,15.72A31.84,31.84,0,0,1,178.8,85H117.06A31.84,31.84,0,0,1,147.93,60.57Z"/><path class="cls-1" d="M248.1,44.85a47.76,47.76,0,0,0,0,95.51,47,47,0,0,0,33.78-14l-11.06-11.06a32.18,32.18,0,0,1-22.72,9.31,31.82,31.82,0,0,1-30.86-24.46h78.62V91.44A47.74,47.74,0,0,0,248.1,44.85Zm0,15.72A31.82,31.82,0,0,1,279,85H217.24C220.73,71.05,233.54,60.57,248.1,60.57Z"/><path class="cls-1" d="M574.83,92.6a47.76,47.76,0,1,0-47.76,47.76,47,47,0,0,0,33.78-14l-11.06-11.06a32.18,32.18,0,0,1-22.72,9.31,31.82,31.82,0,0,1-30.86-24.46h78.62V92.6Zm-47.76-32A31.82,31.82,0,0,1,557.94,85H496.21C499.7,71.05,512.51,60.57,527.07,60.57Z"/><path class="cls-1" d="M460.1,89.69c-9.9-3.49-19.22-3.49-28-5.24-9.32-1.75-14.56-4.66-14.56-11.65,0-4.08,2.33-7,7-9.32,3.5-1.75,8.16-2.33,12.81-2.33,5.25,0,9.32.58,12.82,2.33,4.66,2.33,7,5.24,7,9.32v.58h16.3V72.8q0-13.11-12.23-21a42.49,42.49,0,0,0-23.88-7c-9.31,0-17.47,2.32-23.87,7q-12.24,7.88-12.23,21c0,11.07,5.24,19.22,15.14,22.71.58,0,3.49,1.17,8.15,2.33s11.65,1.75,19.8,3.5c9.32,1.75,14,3.49,14,11.06,0,8.16-7,11.65-21.55,11.65-5.82,0-10.48-.58-14-2.33-5.24-2.33-7.57-5.24-7.57-9.9v-.58H399.53v.58c0,8.74,4.08,15.73,12.81,21A29,29,0,0,0,424,137.45a52.43,52.43,0,0,0,26.79,0,42.22,42.22,0,0,0,11.65-5.24c8.15-5.25,12.81-12.23,12.81-21C475.24,101.34,470.58,93.18,460.1,89.69Z"/><path class="cls-1" d="M838.66,92.6a47.76,47.76,0,1,0-47.76,47.76,47,47,0,0,0,33.78-14l-11.06-11.06a32.18,32.18,0,0,1-22.72,9.31A31.82,31.82,0,0,1,760,100.17h78.62V92.6Zm-47.76-32A31.82,31.82,0,0,1,821.77,85H759.45A32.51,32.51,0,0,1,790.9,60.57Z"/><path class="cls-1" d="M724.51,89.69c-9.9-3.49-19.22-3.49-28-5.24C687.24,82.7,682,79.79,682,72.8c0-4.08,2.33-7,7-9.32,3.5-1.75,8.16-2.33,12.82-2.33,5.24,0,9.31.58,12.81,2.33,4.66,2.33,7,5.24,7,9.32v.58h16.3V72.8q0-13.11-12.23-21a42.46,42.46,0,0,0-23.87-7c-9.32,0-17.48,2.32-23.88,7q-12.24,7.88-12.23,21c0,11.07,5.24,19.22,15.14,22.71.58,0,3.49,1.17,8.15,2.33s11.65,1.75,19.8,3.5c9.32,1.75,14,3.49,14,11.06,0,8.16-7,11.65-21.55,11.65-5.82,0-10.48-.58-14-2.33-5.25-2.33-7.58-5.24-7.58-9.9v-.58H663.94v.58c0,8.74,4.08,15.73,12.81,21a29,29,0,0,0,11.65,4.66,52.43,52.43,0,0,0,26.79,0,42.22,42.22,0,0,0,11.65-5.24c8.15-5.25,12.81-12.23,12.81-21C739.65,101.34,734.41,93.18,724.51,89.69Z"/><path class="cls-1" d="M852.64,118.23a12.25,12.25,0,0,0-7.57,2.91,11.07,11.07,0,0,0-2.92,7.57,12.26,12.26,0,0,0,2.92,7.57,11,11,0,0,0,7.57,2.91,12.25,12.25,0,0,0,7.57-2.91,11,11,0,0,0,2.91-7.57,12.25,12.25,0,0,0-2.91-7.57A12.25,12.25,0,0,0,852.64,118.23Z"/><path class="cls-1" d="M980.18,7a12.25,12.25,0,0,0-7.57,2.91,11.11,11.11,0,0,0-2.91,7.57A12.31,12.31,0,0,0,972.61,25,11.07,11.07,0,0,0,980.18,28,12.27,12.27,0,0,0,987.76,25a11.09,11.09,0,0,0,2.91-7.57,12.31,12.31,0,0,0-2.91-7.57A9.65,9.65,0,0,0,980.18,7Z"/><path class="cls-1" d="M338.38,157.25H350c4.66,0,7.58,2.91,7.58,7a5.75,5.75,0,0,1-4.66,5.82,6.83,6.83,0,0,1,5.24,6.41c0,4.07-2.91,7-7.57,7H338.38Zm11.06,11.06c2.91,0,4.66-1.74,4.66-4.07s-1.75-4.08-4.66-4.08h-8.15v8.74h8.15Zm0,12.23a4.28,4.28,0,0,0,4.66-4.65,4.6,4.6,0,0,0-4.66-4.66h-8.15v9.31Z"/><path class="cls-1" d="M384.39,157.25h3.49v26.21h-3.49Z"/><path class="cls-1" d="M427.48,156.67A14.78,14.78,0,0,1,438,161.33l-2.33,1.74a9.39,9.39,0,0,0-7.57-3.49c-5.83,0-9.9,4.66-9.9,10.48,0,6.41,4.65,10.48,9.9,10.48a11.12,11.12,0,0,0,7-2.91v-5.24h-9.91v-2.91h12.23v9.9c-2.32,2.91-5.82,4.66-10.48,4.66-7.57,0-13.39-5.24-13.39-13.4C413.51,161.91,419.91,156.67,427.48,156.67Z"/><path class="cls-1" d="M495.63,157.25h8.73c8.15,0,13.4,5.82,13.4,13.39s-5.25,13.4-13.4,13.4h-8.73Zm8.73,23.29c6.41,0,9.9-4.65,9.9-10.48s-3.49-10.48-9.9-10.48h-5.82V180h5.82Z"/><path class="cls-1" d="M559.69,177.63h-13.4L544,183.46h-3.49L551,157.25H555l10.48,26.21H562Zm-12.81-2.91h11.64l-5.82-14.56Z"/><path class="cls-1" d="M594.05,160.16H585.9v-2.91h19.8v2.91h-8.15v23.3h-3.5Z"/><path class="cls-1" d="M645.3,177.63H631.91l-2.33,5.83h-3.5l10.49-26.21h4.07l10.49,26.21h-3.5Zm-12.81-2.91h11.65l-5.83-14.56Z"/><path class="cls-1" d="M707.62,177.05a11.79,11.79,0,0,0,8.15,3.49c4.66,0,6.41-2.32,6.41-4.65,0-2.92-2.91-4.08-6.41-5.25-4.07-1.16-8.73-2.33-8.73-7.57,0-4.07,4.07-7.57,9.32-7.57,4.07,0,7,1.17,9.31,3.5l-1.74,2.33c-1.75-2.33-4.66-2.92-7.57-2.92s-5.25,1.75-5.25,4.08c0,2.91,2.92,3.49,6.41,4.08,4.08,1.16,9.32,2.33,9.32,8.15,0,4.08-2.33,7.57-9.9,7.57-4.66,0-8.16-1.75-9.9-4.07Z"/><path class="cls-1" d="M750.14,170.06c0-8.15,5.82-13.39,13.39-13.39a11.31,11.31,0,0,1,9.9,5.24l-2.91,1.75a9.1,9.1,0,0,0-7.57-4.08c-5.83,0-9.9,4.66-9.9,10.48,0,6.41,4.66,10.48,9.9,10.48a10,10,0,0,0,7.57-4.07l2.91,1.75c-2.33,2.91-5.24,5.24-9.9,5.24C756.54,184,750.14,178.22,750.14,170.06Z"/><path class="cls-1" d="M799.06,157.25h3.49v26.21h-3.49Z"/><path class="cls-1" d="M829.92,157.25H847.4v2.91h-14v8.74h14v2.91h-14v9.32h14V184H829.92Z"/><path class="cls-1" d="M877.1,161.91v21h-3.5v-26.2h3.5l15.14,21v-21h3.5v26.2h-2.92Z"/><path class="cls-1" d="M921.94,170.06c0-8.15,5.83-13.39,13.4-13.39a11.31,11.31,0,0,1,9.9,5.24l-2.91,1.75a9.1,9.1,0,0,0-7.57-4.08c-5.83,0-9.9,4.66-9.9,10.48,0,6.41,4.66,10.48,9.9,10.48a10,10,0,0,0,7.57-4.07l2.91,1.75c-2.33,2.91-5.24,5.24-9.9,5.24C927.77,184,921.94,178.22,921.94,170.06Z"/><path class="cls-1" d="M970.87,157.25h17.47v2.91h-14v8.74h14v2.91h-14v9.32h14V184H970.87Z"/><path class="cls-1" d="M79.79,0V57.08A46.75,46.75,0,0,0,47.17,44.26a48.05,48.05,0,0,0,.59,96.1,47.81,47.81,0,0,0,32.61-12.81v12.81H95.51V.58ZM47.17,124.63a32,32,0,0,1,0-64.06,32.32,32.32,0,0,1,32,32A31.94,31.94,0,0,1,47.17,124.63Z"/><path class="cls-1" d="M348.86,44.85a47.81,47.81,0,0,0-32.62,12.81V41.35H301.1V182.87h15.14V127a46.77,46.77,0,0,0,32.62,12.82A48,48,0,0,0,396.62,92C396.62,66.39,375.07,44.85,348.86,44.85Zm0,79.78a32,32,0,1,1,32-32A32.32,32.32,0,0,1,348.86,124.63Z"/><rect class="cls-1" x="972.61" y="44.85" width="15.14" height="95.51"/><path class="cls-1" d="M947,44.85V57.66a46.74,46.74,0,0,0-32.62-12.81A47.76,47.76,0,1,0,947,127.55v12.81h15.14V44.85Zm-32.62,79.78a32,32,0,1,1,32-32A32.32,32.32,0,0,1,914.37,124.63Z"/><path class="cls-1" d="M649.38,55.91c-7-8.15-15.73-12.23-25.63-12.23-11.06,0-19.8,3.49-25.62,10.48V44.85H582.4v94.34h15.73V83.28a23.93,23.93,0,0,1,6.4-16.3c4.66-4.66,9.91-6.41,16.31-6.41A23.9,23.9,0,0,1,637.15,67a22,22,0,0,1,7,16.3v55.91h16.31V83.28C659.28,72.8,655.79,63.48,649.38,55.91Z"/></g></g></svg>