<svg xmlns="http://www.w3.org/2000/svg" viewBox="0 0 435.69 244"><defs><style>.cls-1{fill:#00b0e0;}.cls-2{fill:#1d1c1a;}</style></defs><title>simple_process</title><g id="Warstwa_2" data-name="Warstwa 2"><g id="Warstwa_1-2" data-name="Warstwa 1"><path class="cls-1" d="M108.85,146.52A2,2,0,0,1,107.6,143l56.3-45a2,2,0,1,1,2.5,3.12l-56.3,45A2,2,0,0,1,108.85,146.52Z"/><path class="cls-1" d="M325.5,148.24a2,2,0,0,1-1.19-.39L259,99.37a2,2,0,0,1,2.38-3.22l65.33,48.48a2,2,0,0,1,.41,2.8A2,2,0,0,1,325.5,148.24Z"/><path class="cls-2" d="M212,124a62,62,0,1,1,62-62A62.07,62.07,0,0,1,212,124ZM212,4a58,58,0,1,0,58,58A58.07,58.07,0,0,0,212,4Z"/><path class="cls-2" d="M62,244a62,62,0,1,1,62-62A62.07,62.07,0,0,1,62,244Zm0-120a58,58,0,1,0,58,58A58.07,58.07,0,0,0,62,124Z"/><path class="cls-2" d="M373.69,244a62,62,0,1,1,62-62A62.07,62.07,0,0,1,373.69,244Zm0-120a58,58,0,1,0,58,58A58.07,58.07,0,0,0,373.69,124Z"/></g></g></svg>